<!-- <?xml version="1.0" encoding="UTF-8"?> -->
<svg width="47px" height="73px" viewBox="0 0 47 73" version="1.1" xmlns="http://www.w3.org/2000/svg" xmlns:xlink="http://www.w3.org/1999/xlink">
    <!-- Generator: Sketch 52.6 (67491) - http://www.bohemiancoding.com/sketch -->
    <title>Yacht Club (1)</title>
    <desc>Created with Sketch.</desc>
    <g id="Page-1" stroke="none" stroke-width="1" fill="none" fill-rule="evenodd">
        <g id="App" transform="translate(-31.000000, -35.000000)" fill="#261201">
            <g id="Yacht-Club-(1)" transform="translate(31.000000, 35.000000)">
                <path d="M37.8544489,72.5839804 C36.8704119,73.2377666 35.5583626,73.1151817 34.7383318,72.2570873 C33.5492872,71.0720999 33.8362979,69.1107414 35.3123534,68.3343703 C38.0594566,66.8224898 40.5195489,70.8269301 37.8544489,72.5839804 Z" id="Path"></path>
                <path d="M40.5527485,61.9961822 L31.4568723,66.7142608 C30.4700556,67.2384918 29.2258084,67.0200622 28.453517,66.2337158 L27.7670358,65.5347411 C26.4369784,64.1804778 26.9089342,61.9088103 28.6251373,61.2098357 L38.4074947,57.2344176 C41.4966601,55.9238402 43.5131987,60.4671752 40.5527485,61.9961822 Z" id="Path"></path>
                <path d="M43.3046925,54.1444605 L24.9834655,60.8464592 C24.0525948,61.194615 22.9947873,60.9334982 22.3177904,60.2371866 L20.7522352,58.6269661 C19.3559293,57.1908236 19.9906138,54.7102137 21.9369797,54.18798 L41.7814496,49.0962018 C44.9548723,48.2693318 46.3511783,53.0129543 43.3046925,54.1444605 Z" id="Path"></path>
                <path d="M43.945899,47.0789197 L15.7602978,52.9486137 C14.9239298,53.1187498 14.0457434,52.8635457 13.4602858,52.2255355 L10.7420899,49.4608245 C9.23662752,47.9296 10.1566323,45.292491 12.2893707,45.079821 L43.1931678,42.0173719 C46.4131845,41.6770998 47.1240973,46.4409094 43.945899,47.0789197 Z" id="Path"></path>
                <path d="M4.78072719,32.0038553 L44.5781843,34.0383123 C47.8072719,34.2010688 47.8072719,38.7989415 44.5781843,38.9616981 L4.78072719,40.9961551 C4.06781173,41.0368442 3.35489627,40.7520202 2.85166183,40.2637506 L0.754851662,38.2292936 C-0.251617221,37.2527543 -0.251617221,35.706567 0.754851662,34.7300276 L2.85166183,32.6955707 C3.35489627,32.2479901 4.06781173,31.9631662 4.78072719,32.0038553 Z" id="Path"></path>
                <path d="M15.7652556,20.0508642 L43.9751158,25.9002472 C47.1141952,26.5360497 46.4026705,31.283375 43.2217367,30.9866671 L12.2913411,27.9348152 C10.1567671,27.722881 9.23597049,25.0948973 10.7427286,23.5689713 L13.4632641,20.8138272 C14.09108,20.1356379 14.9281678,19.8813169 15.7652556,20.0508642 Z" id="Path"></path>
                <path d="M24.9918794,12.1535408 L43.2755638,18.8555395 C46.3580326,19.9870457 44.9645878,24.7306682 41.7976678,23.9037982 L21.9516363,18.81202 C20.0092587,18.3333058 19.3336491,15.8526959 20.7693195,14.3730339 L22.3316667,12.7628134 C23.0072763,12.0665018 24.0629162,11.805385 24.9918794,12.1535408 Z" id="Path"></path>
                <path d="M31.4568723,6.29374205 L40.5527485,10.9936148 C43.5131987,12.5167217 41.4966601,17.042525 38.4074947,15.7805222 L28.6251373,11.8204442 C26.9089342,11.1241668 26.4369784,8.86126511 27.7670358,7.51222757 L28.453517,6.81595013 C29.2258084,5.94560332 30.4700556,5.77153396 31.4568723,6.29374205 Z" id="Path"></path>
                <path d="M37.851779,0.404434872 C40.5074103,2.16592565 38.0969142,6.18048603 35.2778593,4.66478466 C33.847904,3.88645153 33.5619129,1.92013624 34.7058772,0.732154087 C35.5638504,-0.0871439494 36.8712382,-0.251003557 37.851779,0.404434872 Z" id="Path"></path>
            </g>
        </g>
    </g>
</svg>